<svg xmlns="http://www.w3.org/2000/svg" viewBox="0 0 512 512" role="img" aria-label="{eb} — esneiderbravo.dev">
  <rect width="512" height="512" rx="108" fill="#131313"/>
  <rect x="3" y="3" width="506" height="506" rx="105" fill="none" stroke="rgba(255,255,255,0.08)" stroke-width="6"/>
  <path d="M114.2 351.6Q107.8 351.6 103.4 347.3Q99.0 342.9 99.0 336.2V273.2Q99.0 263.4 88.5 263.4H71.7V248.6H88.5Q99.0 248.6 99.0 238.8V175.8Q99.0 169.1 103.4 164.7Q107.8 160.4 114.2 160.4H144.7V173.8H119.3Q114.0 173.8 114.0 179.7V239.0Q114.0 246.0 110.2 250.3Q106.4 254.6 99.6 254.6H98.2V257.4H99.6Q106.4 257.4 110.2 261.7Q114.0 266.0 114.0 273.0V332.3Q114.0 338.2 119.3 338.2H144.7V351.6Z" fill="#00e5ff"/>
  <path d="M198.9 308.5Q184.4 308.5 173.4 302.4Q162.4 296.2 156.2 285.0Q150.1 273.8 150.1 258.5V256.2Q150.1 241.0 156.1 229.7Q162.2 218.5 173.1 212.4Q184.0 206.2 198.5 206.2Q212.7 206.2 223.3 212.6Q233.8 218.9 239.7 230.1Q245.5 241.4 245.5 256.2V264.6H175.0Q175.4 274.5 182.5 280.8Q189.5 287.0 199.6 287.0Q210.0 287.0 214.9 282.5Q219.7 278.1 222.3 272.6L242.4 283.1Q239.7 288.2 234.5 294.2Q229.3 300.1 220.7 304.3Q212.1 308.5 198.9 308.5ZM175.2 246.2H220.5Q219.7 237.8 213.8 232.8Q207.8 227.7 198.3 227.7Q188.3 227.7 182.5 232.8Q176.6 237.8 175.2 246.2Z" fill="#f4f4f3"/>
  <path d="M318.2 308.5Q305.1 308.5 298.1 304.0Q291.1 299.5 287.8 294.1H284.3V305.8H260.1V169.1H284.6V220.1H288.2Q290.3 216.6 293.9 213.4Q297.5 210.3 303.5 208.3Q309.4 206.2 318.2 206.2Q329.9 206.2 339.9 212.0Q349.8 217.7 355.9 228.9Q361.9 240.0 361.9 255.8V258.9Q361.9 274.7 355.9 285.9Q349.8 297.0 339.9 302.8Q329.9 308.5 318.2 308.5ZM310.8 287.0Q322.1 287.0 329.7 279.7Q337.4 272.4 337.4 258.3V256.4Q337.4 242.3 329.8 235.0Q322.3 227.7 310.8 227.7Q299.5 227.7 291.9 235.0Q284.3 242.3 284.3 256.4V258.3Q284.3 272.4 291.9 279.7Q299.5 287.0 310.8 287.0Z" fill="#f4f4f3"/>
  <path d="M367.3 351.6V338.2H392.7Q398.0 338.2 398.0 332.3V273.0Q398.0 266.0 401.8 261.7Q405.6 257.4 412.4 257.4H413.8V254.6H412.4Q405.6 254.6 401.8 250.3Q398.0 246.0 398.0 239.0V179.7Q398.0 173.8 392.7 173.8H367.3V160.4H397.8Q404.2 160.4 408.5 164.7Q412.8 169.1 412.8 175.8V238.8Q412.8 248.6 423.3 248.6H440.3V263.4H423.3Q412.8 263.4 412.8 273.2V336.2Q412.8 342.9 408.5 347.3Q404.2 351.6 397.8 351.6Z" fill="#00e5ff"/>
</svg>
